<svg xmlns="http://www.w3.org/2000/svg" version="1.1" xmlns:xlink="http://www.w3.org/1999/xlink" xmlns:svgjs="http://svgjs.com/svgjs" width="1440" height="560" preserveAspectRatio="none" viewBox="0 0 1440 560"><g mask="url(&quot;#SvgjsMask1012&quot;)" fill="none"><rect width="1440" height="560" x="0" y="0" fill="#0e2a47"></rect><path d="M243.87 0C267.39 6.41 259.73 38.18 280 38.18C306.76 38.18 305.86 8.75 337.93 0C375.86 -10.34 378.97 0 420 0C490 0 490 0 560 0C618.34 0 627.37 -15.17 676.67 0C697.37 6.37 683.19 43.08 700 43.08C725.97 43.08 727.7 10.62 762.22 0C797.7 -10.92 801.11 0 840 0C910 0 910 0 980 0C1050 0 1050 0 1120 0C1190 0 1190 0 1260 0C1324.72 0 1327.56 -5.89 1389.43 0C1397.56 0.77 1392.24 13.33 1400 13.33C1432.52 13.33 1434.69 3.36 1470 0C1504.69 -3.3 1517.17 -12.17 1540 0C1552.17 6.49 1544.05 19.27 1540 37.33C1528.34 89.27 1508.57 90.66 1508.57 140C1508.57 167.66 1533.65 163.03 1540 191.33C1549.36 233.03 1540 235.66 1540 280C1540 350 1540 350 1540 420C1540 490 1575 525 1540 560C1505 595 1470 560 1400 560C1330 560 1330 560 1260 560C1190 560 1190 560 1120 560C1052.15 560 1051.21 562.19 984.31 560C981.21 559.9 982.56 555.41 980 555.41C975.89 555.41 976 559.84 970.97 560C906 562.13 905.49 560 840 560C795.87 560 780.08 584.09 751.74 560C710.08 524.59 727.46 441 700 441C671.84 441 684.11 522.93 640.5 560C614.11 582.43 600.25 560 560 560C509.69 560 506.99 568.93 459.38 560C436.99 555.8 439.98 533.75 420 533.75C398.57 533.75 400.67 555.48 376.55 560C330.67 568.6 328.27 560 280 560C245 560 241.61 570.9 210 560C171.61 546.76 170.17 511.72 140 511.72C119.62 511.72 133.06 551.66 108.89 560C63.06 575.8 23.82 590.63 0 560C-30.63 520.63 0 490 0 420C0 381.93 -10.25 378.93 0 343.86C10.2 308.93 40.9 312.7 40.9 280C40.9 242.85 11.72 244.29 0 204.17C-8.73 174.29 0 172.08 0 140C0 70 -35 35 0 0C35 -35 70 0 140 0C191.94 0 197.39 -12.68 243.87 0" stroke="rgba(51, 121, 194, 0.58)" stroke-width="2"></path><path d="M1260 96.62C1229.63 96.62 1198.99 108.97 1197.14 140C1193.53 200.66 1247.63 209.55 1249.09 280C1250.54 349.55 1199.34 357.55 1202.96 420C1204.79 451.62 1232.31 468.13 1260 468.13C1285.67 468.13 1307.06 450.53 1309.68 420C1315.13 356.46 1275.74 349.9 1276.15 280C1276.56 209.9 1316.84 202.56 1311.33 140C1308.76 110.87 1286.72 96.62 1260 96.62" stroke="rgba(51, 121, 194, 0.58)" stroke-width="2"></path><path d="M280 277.85C278.62 277.85 277.85 278.48 277.81 280C276.05 349.55 275.37 350.43 276.41 420C276.47 423.76 278.22 426.67 280 426.67C281.77 426.67 283.29 423.74 283.5 420C287.41 350.41 289.89 347 288.24 280C288.14 275.93 283.83 277.85 280 277.85" stroke="rgba(66, 252, 91, 1)" stroke-width="2"></path><path d="M980 201.25C953.9 201.25 913.68 247.56 913.68 280C913.68 303.3 950.15 312.73 980 312.73C997.47 312.73 1008.31 299 1008.31 280C1008.31 243.26 1001.21 201.25 980 201.25" stroke="rgba(66, 252, 91, 1)" stroke-width="2"></path><path d="M12.73 140C8.72 132.42 0.75 136.63 0 128.33C-5.61 66.63 -33.48 30.69 0 0C36.52 -33.48 70 0 140 0C173.12 0 179.52 -14.88 206.24 0C249.52 24.1 238.77 44.25 280 77.95C324.4 114.25 377.5 105.45 377.5 140C377.5 178.47 327.64 180.79 280 224C250.45 250.79 239.72 245.16 223.13 280C193.06 343.16 216.6 358.3 186.67 420C175.04 443.99 157.69 430.15 140 451.38C99.35 500.15 115.4 524.77 70 560C45.4 579.08 11.67 583.33 0 560C-23.33 513.33 0 490 0 420C0 412.63 -3.62 411.57 0 405.26C36.49 341.57 77.11 344.86 80.22 280C83.47 212.23 48.83 208.25 12.73 140" stroke="rgba(66, 252, 91, 1)" stroke-width="2"></path><path d="M420 48.46C404.08 27.58 398.28 17.2 398.28 0C398.28 -7.03 409.14 0 420 0C490 0 490 0 560 0C581.88 0 593.89 -16.13 603.75 0C636.67 53.87 658.78 84.77 645.56 140C636.9 176.16 600.66 182.78 560 182.78C530.38 182.78 530.06 164.05 505 140C460.06 96.89 457.44 97.58 420 48.46" stroke="rgba(66, 252, 91, 1)" stroke-width="2"></path><path d="M1098.46 140C1090.92 67.24 1012.01 42.97 1018.62 0C1022.78 -27.03 1069.31 0 1120 0C1190 0 1190 0 1260 0C1291.7 0 1323.4 -10.53 1323.4 0C1323.4 13.13 1292.28 24.46 1260 47.32C1193.43 94.46 1139.93 81.3 1125.71 140C1111.75 197.64 1205.14 212.28 1203.64 280C1202.29 340.82 1164.87 341.47 1120 397.09C1108.4 411.47 1090.7 407.98 1090.7 420C1090.7 432.84 1105.22 433.55 1120 446.81C1183.21 503.55 1246.67 527.58 1246.67 560C1246.67 584.17 1183.34 560 1120 560C1079.07 560 1072.49 575.2 1038.15 560C1002.49 544.22 1014.51 498.03 980 498.03C924.46 498.03 919.9 532.63 858.06 560C849.9 563.61 849.03 560 840 560C833.91 560 830.57 565.15 827.83 560C793.33 495.15 762.33 487.43 765.53 420C768.42 359.09 788.6 318.15 840 303.33C895.84 287.24 918.48 365.09 980 358.18C1022.3 353.43 1023.37 324.7 1047.64 280C1082.6 215.61 1105.43 207.24 1098.46 140" stroke="rgba(51, 121, 194, 0.58)" stroke-width="2"></path><path d="M1369.67 140C1377.33 115.18 1383.77 96.67 1400 96.67C1417.51 96.67 1422.65 115.6 1437.14 140C1477.09 207.26 1467.31 215.12 1508.89 280C1518.74 295.36 1536.3 283.86 1540 300.49C1551.86 353.86 1540 360.25 1540 420C1540 490 1575 525 1540 560C1505 595 1470 560 1400 560C1342.18 560 1284.35 583.23 1284.35 560C1284.35 527.82 1345.09 506.91 1400 449.17C1411.66 436.91 1417.5 434.43 1417.5 420C1417.5 406.38 1407.5 407.26 1400 393.08C1370.48 337.26 1350.59 339.5 1343.46 280C1335.43 212.96 1349.06 206.84 1369.67 140" stroke="rgba(66, 252, 91, 1)" stroke-width="2"></path><path d="M371 420C371 381.78 383.86 336.76 420 334.78C478.36 331.58 490.95 370.84 560 409.63C566.79 413.45 571.67 412.75 571.67 420C571.67 452.94 585.15 483.23 560 490C509.32 503.64 485.35 485.03 420 460.83C390.85 450.03 371 444.8 371 420" stroke="rgba(51, 121, 194, 0.58)" stroke-width="2"></path><path d="M118.79 140C86.8 73.41 49.78 89.78 0 31.11C-9.61 19.78 -12.73 2.83 0 0C57.27 -12.73 70 0 140 0C154.3 0 158.1 -8.83 168.6 0C228.1 50.04 221.72 62 280 117.73C294.92 132 315 127.6 315 140C315 153.81 296.7 154.2 280 170.15C223.42 224.2 215.13 219.08 168.44 280C145.13 310.41 152.42 352.8 140 352.8C127.98 352.8 123.27 317.31 119.55 280C112.66 210.91 146.58 197.85 118.79 140" stroke="rgba(66, 252, 91, 1)" stroke-width="2"></path><path d="M1086.97 280C1086.97 247.37 1102.48 213.18 1120 213.18C1138.09 213.18 1158.18 247.56 1158.18 280C1158.18 307.69 1138.2 333.45 1120 333.45C1102.59 333.45 1086.97 307.51 1086.97 280" stroke="rgba(66, 252, 91, 1)" stroke-width="2"></path><path d="M840 420C840 410.76 911.63 403.64 980 403.64C996.28 403.64 1009.3 411.05 1009.3 420C1009.3 429.56 997.11 440.66 980 440.66C912.46 440.66 840 429.27 840 420" stroke="rgba(66, 252, 91, 1)" stroke-width="2"></path><path d="M1505 420C1512.19 397.64 1529.7 385.85 1540 385.85C1547.2 385.85 1540 402.92 1540 420C1540 490 1560 510 1540 560C1532 580 1488.96 579.84 1484 560C1471.46 509.84 1484.19 484.72 1505 420" stroke="rgba(66, 252, 91, 1)" stroke-width="2"></path><path d="M0 488.21C8.11 488.21 31.11 534.32 31.11 560C31.11 570.21 4.7 570.85 0 560C-10.85 534.96 -7.44 488.21 0 488.21" stroke="rgba(66, 252, 91, 1)" stroke-width="2"></path><path d="M1092 560C1092 547.79 1103.91 521.28 1120 521.28C1139.57 521.28 1163.33 548.91 1163.33 560C1163.33 568.27 1141.66 560 1120 560C1106 560 1092 567.15 1092 560" stroke="rgba(51, 121, 194, 0.58)" stroke-width="2"></path></g><defs><mask id="SvgjsMask1012"><rect width="1440" height="560" fill="#ffffff"></rect></mask></defs></svg>